<svg width="31" height="31" viewBox="0 0 31 31" fill="none" xmlns="http://www.w3.org/2000/svg">
<g id="Instagram">
<g id="Instagram_2">
<rect id="Rectangle" x="0.5" y="0.5" width="30" height="30" rx="15" stroke="#0D3080"/>
<path id="Vector" d="M12.2718 15.5C12.2718 13.7166 13.7171 12.2706 15.5005 12.2706C17.2838 12.2706 18.7299 13.7166 18.7299 15.5C18.7299 17.2834 17.2838 18.7294 15.5005 18.7294C13.7171 18.7294 12.2718 17.2834 12.2718 15.5ZM10.5261 15.5C10.5261 18.2474 12.7531 20.4744 15.5005 20.4744C18.2479 20.4744 20.4749 18.2474 20.4749 15.5C20.4749 12.7526 18.2479 10.5256 15.5005 10.5256C12.7531 10.5256 10.5261 12.7526 10.5261 15.5ZM19.5093 10.3283C19.5092 10.5583 19.5773 10.7831 19.705 10.9743C19.8326 11.1655 20.0141 11.3146 20.2265 11.4026C20.4389 11.4907 20.6726 11.5138 20.8982 11.4691C21.1237 11.4243 21.3309 11.3137 21.4935 11.1512C21.6562 10.9886 21.767 10.7815 21.8119 10.5561C21.8568 10.3306 21.8339 10.0968 21.746 9.88437C21.6581 9.67192 21.5092 9.4903 21.3181 9.36249C21.1269 9.23467 20.9022 9.1664 20.6723 9.16631H20.6718C20.3636 9.16646 20.0681 9.28892 19.8501 9.5068C19.6322 9.72467 19.5096 10.0202 19.5093 10.3283ZM11.5867 23.3854C10.6422 23.3424 10.1289 23.1851 9.78773 23.0521C9.33544 22.8761 9.01273 22.6663 8.67344 22.3275C8.33414 21.9887 8.12412 21.6663 7.94881 21.214C7.81582 20.873 7.6585 20.3595 7.61556 19.415C7.5686 18.3939 7.55922 18.0871 7.55922 15.5001C7.55922 12.9131 7.56937 12.6072 7.61556 11.5852C7.65857 10.6407 7.81706 10.1282 7.94881 9.78616C8.12489 9.33387 8.33461 9.01116 8.67344 8.67186C9.01227 8.33257 9.33467 8.12254 9.78773 7.94724C10.1287 7.81425 10.6422 7.65692 11.5867 7.61399C12.6079 7.56702 12.9146 7.55764 15.5005 7.55764C18.0864 7.55764 18.3934 7.5678 19.4154 7.61399C20.3599 7.657 20.8724 7.81549 21.2144 7.94724C21.6667 8.12254 21.9894 8.33303 22.3287 8.67186C22.668 9.01069 22.8772 9.33387 23.0533 9.78616C23.1863 10.1272 23.3436 10.6407 23.3866 11.5852C23.4335 12.6072 23.4429 12.9131 23.4429 15.5001C23.4429 18.0871 23.4335 18.393 23.3866 19.415C23.3436 20.3595 23.1855 20.8728 23.0533 21.214C22.8772 21.6663 22.6675 21.989 22.3287 22.3275C21.9899 22.666 21.6667 22.8761 21.2144 23.0521C20.8734 23.1851 20.3599 23.3425 19.4154 23.3854C18.3943 23.4324 18.0875 23.4417 15.5005 23.4417C12.9135 23.4417 12.6076 23.4324 11.5867 23.3854ZM11.5065 5.87117C10.4752 5.91813 9.77053 6.08166 9.1551 6.32113C8.51774 6.56843 7.97818 6.90021 7.43902 7.43853C6.89985 7.97684 6.56892 8.51725 6.32162 9.15461C6.08215 9.77042 5.91862 10.4747 5.87166 11.506C5.82392 12.539 5.81299 12.8692 5.81299 15.5C5.81299 18.1308 5.82392 18.461 5.87166 19.494C5.91862 20.5253 6.08215 21.2296 6.32162 21.8454C6.56892 22.4824 6.89993 23.0234 7.43902 23.5615C7.97811 24.0996 8.51774 24.4309 9.1551 24.6789C9.77169 24.9183 10.4752 25.0819 11.5065 25.1288C12.54 25.1758 12.8697 25.1875 15.5005 25.1875C18.1313 25.1875 18.4615 25.1766 19.4944 25.1288C20.5258 25.0819 21.2301 24.9183 21.8459 24.6789C22.4828 24.4309 23.0228 24.0998 23.562 23.5615C24.1011 23.0232 24.4314 22.4824 24.6794 21.8454C24.9188 21.2296 25.0831 20.5253 25.1293 19.494C25.1763 18.4603 25.1872 18.1308 25.1872 15.5C25.1872 12.8692 25.1763 12.539 25.1293 11.506C25.0824 10.4747 24.9188 9.77004 24.6794 9.15461C24.4314 8.51764 24.1003 7.97769 23.562 7.43853C23.0236 6.89936 22.4828 6.56843 21.8467 6.32113C21.2301 6.08166 20.5257 5.91736 19.4952 5.87117C18.4623 5.8242 18.1321 5.8125 15.5013 5.8125C12.8704 5.8125 12.54 5.82343 11.5065 5.87117Z" fill="#0D3080"/>
</g>
</g>
</svg>
