<svg width="33" height="33" viewBox="0 0 33 33" fill="none" xmlns="http://www.w3.org/2000/svg">
<g id="YouTube">
<g id="YouTube_2">
<rect id="Rectangle" x="1" y="1" width="31" height="31" rx="15.5" stroke="#0D3080"/>
<path id="Exclude" fill-rule="evenodd" clip-rule="evenodd" d="M24.0808 10.1322C24.9107 10.3557 25.565 11.01 25.7884 11.8399C26.2034 13.3561 26.1874 16.5161 26.1874 16.5161C26.1874 16.5161 26.1874 19.6601 25.7884 21.1763C25.565 22.0062 24.9107 22.6605 24.0808 22.8839C22.5646 23.2829 16.5 23.2829 16.5 23.2829C16.5 23.2829 10.4513 23.2829 8.91916 22.868C8.08927 22.6445 7.43492 21.9902 7.21149 21.1603C6.8125 19.6601 6.8125 16.5001 6.8125 16.5001C6.8125 16.5001 6.8125 13.3561 7.21149 11.8399C7.43492 11.01 8.10523 10.3397 8.91916 10.1163C10.4353 9.71729 16.5 9.71729 16.5 9.71729C16.5 9.71729 22.5646 9.71729 24.0808 10.1322ZM19.6121 16.5001L14.5688 19.4048V13.5955L19.6121 16.5001Z" fill="#0D3080"/>
</g>
</g>
</svg>
